<svg width="1913" height="1908" xmlns="http://www.w3.org/2000/svg" xmlns:xlink="http://www.w3.org/1999/xlink" xml:space="preserve" overflow="hidden"><defs><clipPath id="clip0"><rect x="2105" y="287" width="1913" height="1908"/></clipPath></defs><g clip-path="url(#clip0)" transform="translate(-2105 -287)"><path d="M2134.4 2183.76C2135.95 2187.25 2137.89 2190.74 2139.44 2194.22L2170.84 2194.22C2437.6 2194.22 2704.36 2193.45 2971.12 2195 3009.51 2195 3037.04 2183.37 3064.18 2157.39L3615.92 1634.8 4018 1252.93C4013.35 1245.95 4011.02 1240.52 4007.53 1237.03L3037.04 316.671C3013.77 294.573 2989.35 286.819 2957.55 287.207 2696.22 287.982 2434.89 287.595 2173.56 287.982 2156.5 287.982 2134.47 285.726 2105 288.052L3120.01 1250.21 2134.4 2183.76Z" fill="#009EDB" fill-rule="evenodd"/></g></svg>